<mxfile host="app.diagrams.net" modified="2022-11-10T01:06:45.209Z" agent="5.0 (Windows NT 10.0; Win64; x64) AppleWebKit/537.36 (KHTML, like Gecko) Chrome/106.0.0.0 Safari/537.36" etag="C5X6cPGS7gR16zwDwBai" version="20.5.3" type="github">
  <diagram id="3228e29e-7158-1315-38df-8450db1d8a1d" name="Page-1">
    <mxGraphModel dx="1422" dy="762" grid="1" gridSize="10" guides="1" tooltips="1" connect="1" arrows="1" fold="1" page="1" pageScale="1" pageWidth="1169" pageHeight="827" background="none" math="0" shadow="0">
      <root>
        <mxCell id="0" />
        <mxCell id="1" parent="0" />
        <mxCell id="21592" value="" style="ellipse;whiteSpace=wrap;html=1;aspect=fixed;rounded=1;shadow=0;labelBackgroundColor=none;strokeColor=none;strokeWidth=3;fillColor=#2f5b7c;gradientColor=none;fontFamily=Helvetica;fontSize=14;fontColor=#AE4132;align=center;opacity=30;" parent="1" vertex="1">
          <mxGeometry x="434.5" y="383.5" width="310" height="310" as="geometry" />
        </mxCell>
        <mxCell id="21593" value="" style="ellipse;whiteSpace=wrap;html=1;aspect=fixed;rounded=1;shadow=0;labelBackgroundColor=none;strokeColor=none;strokeWidth=3;fillColor=#2f5b7c;gradientColor=none;fontFamily=Helvetica;fontSize=14;fontColor=#AE4132;align=center;opacity=30;" parent="1" vertex="1">
          <mxGeometry x="434.5" y="133.5" width="310" height="310" as="geometry" />
        </mxCell>
        <mxCell id="21594" value="" style="ellipse;whiteSpace=wrap;html=1;aspect=fixed;rounded=1;shadow=0;labelBackgroundColor=none;strokeColor=none;strokeWidth=3;fillColor=#1699D3;gradientColor=none;fontFamily=Helvetica;fontSize=14;fontColor=#AE4132;align=center;opacity=30;" parent="1" vertex="1">
          <mxGeometry x="514.5" y="173.5" width="310" height="310" as="geometry" />
        </mxCell>
        <mxCell id="21595" value="" style="ellipse;whiteSpace=wrap;html=1;aspect=fixed;rounded=1;shadow=0;labelBackgroundColor=none;strokeColor=none;strokeWidth=3;fillColor=#736CA8;gradientColor=none;fontFamily=Helvetica;fontSize=14;fontColor=#AE4132;align=center;opacity=30;" parent="1" vertex="1">
          <mxGeometry x="314.5" y="253.5" width="310" height="310" as="geometry" />
        </mxCell>
        <mxCell id="21596" value="" style="ellipse;whiteSpace=wrap;html=1;aspect=fixed;rounded=1;shadow=0;labelBackgroundColor=none;strokeColor=none;strokeWidth=3;fillColor=#1699D3;gradientColor=none;fontFamily=Helvetica;fontSize=14;fontColor=#AE4132;align=center;opacity=30;" parent="1" vertex="1">
          <mxGeometry x="344.5" y="343.5" width="310" height="310" as="geometry" />
        </mxCell>
        <mxCell id="21597" value="" style="ellipse;whiteSpace=wrap;html=1;aspect=fixed;rounded=1;shadow=0;labelBackgroundColor=none;strokeColor=none;strokeWidth=3;fillColor=#F08705;gradientColor=none;fontFamily=Helvetica;fontSize=14;fontColor=#AE4132;align=center;opacity=30;" parent="1" vertex="1">
          <mxGeometry x="344.5" y="173.5" width="310" height="310" as="geometry" />
        </mxCell>
        <mxCell id="21598" value="" style="ellipse;whiteSpace=wrap;html=1;aspect=fixed;rounded=1;shadow=0;labelBackgroundColor=none;strokeColor=none;strokeWidth=3;fillColor=#E85642;gradientColor=none;fontFamily=Helvetica;fontSize=14;fontColor=#AE4132;align=center;opacity=30;" parent="1" vertex="1">
          <mxGeometry x="514.5" y="343.5" width="310" height="310" as="geometry" />
        </mxCell>
        <mxCell id="21599" value="" style="ellipse;whiteSpace=wrap;html=1;aspect=fixed;rounded=1;shadow=0;labelBackgroundColor=none;strokeColor=none;strokeWidth=3;fillColor=#736CA8;gradientColor=none;fontFamily=Helvetica;fontSize=14;fontColor=#AE4132;align=center;opacity=30;" parent="1" vertex="1">
          <mxGeometry x="544.5" y="253.5" width="310" height="310" as="geometry" />
        </mxCell>
        <mxCell id="21600" value="H" style="text;html=1;strokeColor=none;fillColor=none;align=center;verticalAlign=middle;whiteSpace=wrap;rounded=0;shadow=0;labelBackgroundColor=none;fontFamily=Helvetica;fontSize=14;fontColor=#2F5B7C;" parent="1" vertex="1">
          <mxGeometry x="394.5" y="223.5" width="40" height="20" as="geometry" />
        </mxCell>
        <mxCell id="21601" value="G" style="text;html=1;strokeColor=none;fillColor=none;align=center;verticalAlign=middle;whiteSpace=wrap;rounded=0;shadow=0;labelBackgroundColor=none;fontFamily=Helvetica;fontSize=14;fontColor=#2F5B7C;" parent="1" vertex="1">
          <mxGeometry x="324.5" y="403.5" width="40" height="20" as="geometry" />
        </mxCell>
        <mxCell id="21602" value="F" style="text;html=1;strokeColor=none;fillColor=none;align=center;verticalAlign=middle;whiteSpace=wrap;rounded=0;shadow=0;labelBackgroundColor=none;fontFamily=Helvetica;fontSize=14;fontColor=#2F5B7C;" parent="1" vertex="1">
          <mxGeometry x="394.5" y="573.5" width="40" height="20" as="geometry" />
        </mxCell>
        <mxCell id="21603" value="E" style="text;html=1;strokeColor=none;fillColor=none;align=center;verticalAlign=middle;whiteSpace=wrap;rounded=0;shadow=0;labelBackgroundColor=none;fontFamily=Helvetica;fontSize=14;fontColor=#2F5B7C;" parent="1" vertex="1">
          <mxGeometry x="564.5" y="653.5" width="40" height="20" as="geometry" />
        </mxCell>
        <mxCell id="21604" value="D" style="text;html=1;strokeColor=none;fillColor=none;align=center;verticalAlign=middle;whiteSpace=wrap;rounded=0;shadow=0;labelBackgroundColor=none;fontFamily=Helvetica;fontSize=14;fontColor=#2F5B7C;" parent="1" vertex="1">
          <mxGeometry x="744.5" y="573.5" width="40" height="20" as="geometry" />
        </mxCell>
        <mxCell id="21605" value="C" style="text;html=1;strokeColor=none;fillColor=none;align=center;verticalAlign=middle;whiteSpace=wrap;rounded=0;shadow=0;labelBackgroundColor=none;fontFamily=Helvetica;fontSize=14;fontColor=#2F5B7C;" parent="1" vertex="1">
          <mxGeometry x="814.5" y="403.5" width="40" height="20" as="geometry" />
        </mxCell>
        <mxCell id="21606" value="B" style="text;html=1;strokeColor=none;fillColor=none;align=center;verticalAlign=middle;whiteSpace=wrap;rounded=0;shadow=0;labelBackgroundColor=none;fontFamily=Helvetica;fontSize=14;fontColor=#2F5B7C;" parent="1" vertex="1">
          <mxGeometry x="744.5" y="223.5" width="40" height="20" as="geometry" />
        </mxCell>
        <mxCell id="21607" value="A" style="text;html=1;strokeColor=none;fillColor=none;align=center;verticalAlign=middle;whiteSpace=wrap;rounded=0;shadow=0;labelBackgroundColor=none;fontFamily=Helvetica;fontSize=14;fontColor=#2F5B7C;" parent="1" vertex="1">
          <mxGeometry x="564.5" y="143.5" width="40" height="20" as="geometry" />
        </mxCell>
        <mxCell id="21608" value="HA" style="text;html=1;strokeColor=none;fillColor=none;align=center;verticalAlign=middle;whiteSpace=wrap;rounded=0;shadow=0;labelBackgroundColor=none;fontFamily=Helvetica;fontSize=14;fontColor=#2F5B7C;" parent="1" vertex="1">
          <mxGeometry x="479.5" y="213.5" width="40" height="20" as="geometry" />
        </mxCell>
        <mxCell id="21609" value="AB" style="text;html=1;strokeColor=none;fillColor=none;align=center;verticalAlign=middle;whiteSpace=wrap;rounded=0;shadow=0;labelBackgroundColor=none;fontFamily=Helvetica;fontSize=14;fontColor=#2F5B7C;" parent="1" vertex="1">
          <mxGeometry x="644.5" y="213.5" width="40" height="20" as="geometry" />
        </mxCell>
        <mxCell id="21610" value="ABC" style="text;html=1;strokeColor=none;fillColor=none;align=center;verticalAlign=middle;whiteSpace=wrap;rounded=0;shadow=0;labelBackgroundColor=none;fontFamily=Helvetica;fontSize=14;fontColor=#2F5B7C;" parent="1" vertex="1">
          <mxGeometry x="674.5" y="293.5" width="40" height="20" as="geometry" />
        </mxCell>
        <mxCell id="21611" value="BC" style="text;html=1;strokeColor=none;fillColor=none;align=center;verticalAlign=middle;whiteSpace=wrap;rounded=0;shadow=0;labelBackgroundColor=none;fontFamily=Helvetica;fontSize=14;fontColor=#2F5B7C;" parent="1" vertex="1">
          <mxGeometry x="764.5" y="328.5" width="40" height="20" as="geometry" />
        </mxCell>
        <mxCell id="21612" value="BCD" style="text;html=1;strokeColor=none;fillColor=none;align=center;verticalAlign=middle;whiteSpace=wrap;rounded=0;shadow=0;labelBackgroundColor=none;fontFamily=Helvetica;fontSize=14;fontColor=#2F5B7C;" parent="1" vertex="1">
          <mxGeometry x="724.5" y="403.5" width="40" height="20" as="geometry" />
        </mxCell>
        <mxCell id="21613" value="CD" style="text;html=1;strokeColor=none;fillColor=none;align=center;verticalAlign=middle;whiteSpace=wrap;rounded=0;shadow=0;labelBackgroundColor=none;fontFamily=Helvetica;fontSize=14;fontColor=#2F5B7C;" parent="1" vertex="1">
          <mxGeometry x="764.5" y="483.5" width="40" height="20" as="geometry" />
        </mxCell>
        <mxCell id="21614" value="ED" style="text;html=1;strokeColor=none;fillColor=none;align=center;verticalAlign=middle;whiteSpace=wrap;rounded=0;shadow=0;labelBackgroundColor=none;fontFamily=Helvetica;fontSize=14;fontColor=#2F5B7C;" parent="1" vertex="1">
          <mxGeometry x="644.5" y="593.5" width="40" height="20" as="geometry" />
        </mxCell>
        <mxCell id="21615" value="CDE" style="text;html=1;strokeColor=none;fillColor=none;align=center;verticalAlign=middle;whiteSpace=wrap;rounded=0;shadow=0;labelBackgroundColor=none;fontFamily=Helvetica;fontSize=14;fontColor=#2F5B7C;" parent="1" vertex="1">
          <mxGeometry x="674.5" y="513.5" width="40" height="20" as="geometry" />
        </mxCell>
        <mxCell id="21616" value="EF" style="text;html=1;strokeColor=none;fillColor=none;align=center;verticalAlign=middle;whiteSpace=wrap;rounded=0;shadow=0;labelBackgroundColor=none;fontFamily=Helvetica;fontSize=14;fontColor=#2F5B7C;" parent="1" vertex="1">
          <mxGeometry x="484.5" y="593.5" width="40" height="20" as="geometry" />
        </mxCell>
        <mxCell id="21617" value="DEF" style="text;html=1;strokeColor=none;fillColor=none;align=center;verticalAlign=middle;whiteSpace=wrap;rounded=0;shadow=0;labelBackgroundColor=none;fontFamily=Helvetica;fontSize=14;fontColor=#2F5B7C;" parent="1" vertex="1">
          <mxGeometry x="564.5" y="553.5" width="40" height="20" as="geometry" />
        </mxCell>
        <mxCell id="21618" value="EFG" style="text;html=1;strokeColor=none;fillColor=none;align=center;verticalAlign=middle;whiteSpace=wrap;rounded=0;shadow=0;labelBackgroundColor=none;fontFamily=Helvetica;fontSize=14;fontColor=#2F5B7C;" parent="1" vertex="1">
          <mxGeometry x="459.5" y="513.5" width="40" height="20" as="geometry" />
        </mxCell>
        <mxCell id="21619" value="FG" style="text;html=1;strokeColor=none;fillColor=none;align=center;verticalAlign=middle;whiteSpace=wrap;rounded=0;shadow=0;labelBackgroundColor=none;fontFamily=Helvetica;fontSize=14;fontColor=#2F5B7C;" parent="1" vertex="1">
          <mxGeometry x="374.5" y="488.5" width="40" height="20" as="geometry" />
        </mxCell>
        <mxCell id="21620" value="FGH" style="text;html=1;strokeColor=none;fillColor=none;align=center;verticalAlign=middle;whiteSpace=wrap;rounded=0;shadow=0;labelBackgroundColor=none;fontFamily=Helvetica;fontSize=14;fontColor=#2F5B7C;" parent="1" vertex="1">
          <mxGeometry x="414.5" y="413.5" width="40" height="20" as="geometry" />
        </mxCell>
        <mxCell id="21621" value="GH" style="text;html=1;strokeColor=none;fillColor=none;align=center;verticalAlign=middle;whiteSpace=wrap;rounded=0;shadow=0;labelBackgroundColor=none;fontFamily=Helvetica;fontSize=14;fontColor=#2F5B7C;" parent="1" vertex="1">
          <mxGeometry x="374.5" y="323.5" width="40" height="20" as="geometry" />
        </mxCell>
        <mxCell id="21622" value="GHA" style="text;html=1;strokeColor=none;fillColor=none;align=center;verticalAlign=middle;whiteSpace=wrap;rounded=0;shadow=0;labelBackgroundColor=none;fontFamily=Helvetica;fontSize=14;fontColor=#2F5B7C;" parent="1" vertex="1">
          <mxGeometry x="459.5" y="293.5" width="40" height="20" as="geometry" />
        </mxCell>
        <mxCell id="21623" value="ABH" style="text;html=1;strokeColor=none;fillColor=none;align=center;verticalAlign=middle;whiteSpace=wrap;rounded=0;shadow=0;labelBackgroundColor=none;fontFamily=Helvetica;fontSize=14;fontColor=#2F5B7C;" parent="1" vertex="1">
          <mxGeometry x="564.5" y="243.5" width="40" height="20" as="geometry" />
        </mxCell>
        <mxCell id="21624" value="BDE" style="text;html=1;strokeColor=none;fillColor=none;align=center;verticalAlign=middle;whiteSpace=wrap;rounded=0;shadow=0;labelBackgroundColor=none;fontFamily=Helvetica;fontSize=14;fontColor=#2F5B7C;" parent="1" vertex="1">
          <mxGeometry x="659.5" y="443.5" width="40" height="20" as="geometry" />
        </mxCell>
        <mxCell id="21625" value="CDEF" style="text;html=1;strokeColor=none;fillColor=none;align=center;verticalAlign=middle;whiteSpace=wrap;rounded=0;shadow=0;labelBackgroundColor=none;fontFamily=Helvetica;fontSize=14;fontColor=#2F5B7C;" parent="1" vertex="1">
          <mxGeometry x="604.5" y="498.5" width="40" height="20" as="geometry" />
        </mxCell>
        <mxCell id="21626" value="DEFG" style="text;html=1;strokeColor=none;fillColor=none;align=center;verticalAlign=middle;whiteSpace=wrap;rounded=0;shadow=0;labelBackgroundColor=none;fontFamily=Helvetica;fontSize=14;fontColor=#2F5B7C;" parent="1" vertex="1">
          <mxGeometry x="524.5" y="493.5" width="40" height="20" as="geometry" />
        </mxCell>
        <mxCell id="21627" value="EFGH" style="text;html=1;strokeColor=none;fillColor=none;align=center;verticalAlign=middle;whiteSpace=wrap;rounded=0;shadow=0;labelBackgroundColor=none;fontFamily=Helvetica;fontSize=14;fontColor=#2F5B7C;" parent="1" vertex="1">
          <mxGeometry x="474.5" y="443.5" width="40" height="20" as="geometry" />
        </mxCell>
        <mxCell id="NyBVO_WBJMQzZlVbkFb3-21634" style="edgeStyle=orthogonalEdgeStyle;rounded=0;orthogonalLoop=1;jettySize=auto;html=1;exitX=0.5;exitY=0;exitDx=0;exitDy=0;" edge="1" parent="1" source="21628" target="21597">
          <mxGeometry relative="1" as="geometry" />
        </mxCell>
        <mxCell id="21628" value="FGHA" style="text;html=1;strokeColor=none;fillColor=none;align=center;verticalAlign=middle;whiteSpace=wrap;rounded=0;shadow=0;labelBackgroundColor=none;fontFamily=Helvetica;fontSize=14;fontColor=#2F5B7C;" parent="1" vertex="1">
          <mxGeometry x="474.5" y="363.5" width="40" height="20" as="geometry" />
        </mxCell>
        <mxCell id="21629" value="ABGH" style="text;html=1;strokeColor=none;fillColor=none;align=center;verticalAlign=middle;whiteSpace=wrap;rounded=0;shadow=0;labelBackgroundColor=none;fontFamily=Helvetica;fontSize=14;fontColor=#2F5B7C;" parent="1" vertex="1">
          <mxGeometry x="519.5" y="303.5" width="40" height="20" as="geometry" />
        </mxCell>
        <mxCell id="21630" value="ABCH" style="text;html=1;strokeColor=none;fillColor=none;align=center;verticalAlign=middle;whiteSpace=wrap;rounded=0;shadow=0;labelBackgroundColor=none;fontFamily=Helvetica;fontSize=14;fontColor=#2F5B7C;" parent="1" vertex="1">
          <mxGeometry x="604.5" y="303.5" width="40" height="20" as="geometry" />
        </mxCell>
        <mxCell id="21631" value="ABCD" style="text;html=1;strokeColor=none;fillColor=none;align=center;verticalAlign=middle;whiteSpace=wrap;rounded=0;shadow=0;labelBackgroundColor=none;fontFamily=Helvetica;fontSize=14;fontColor=#2F5B7C;" parent="1" vertex="1">
          <mxGeometry x="659.5" y="363.5" width="40" height="20" as="geometry" />
        </mxCell>
        <mxCell id="21632" value="BCEF" style="text;html=1;strokeColor=none;fillColor=none;align=center;verticalAlign=middle;whiteSpace=wrap;rounded=0;shadow=0;labelBackgroundColor=none;fontFamily=Helvetica;fontSize=14;fontColor=#2F5B7C;" parent="1" vertex="1">
          <mxGeometry x="614.5" y="453.5" width="40" height="20" as="geometry" />
        </mxCell>
        <mxCell id="21633" value="ABCGH" style="text;html=1;strokeColor=none;fillColor=none;align=center;verticalAlign=middle;whiteSpace=wrap;rounded=0;shadow=0;labelBackgroundColor=none;fontFamily=Helvetica;fontSize=14;fontColor=#2F5B7C;" parent="1" vertex="1">
          <mxGeometry x="561.5" y="333.5" width="40" height="20" as="geometry" />
        </mxCell>
        <mxCell id="21634" value="ABCDEFGH" style="text;html=1;strokeColor=none;fillColor=none;align=center;verticalAlign=middle;whiteSpace=wrap;rounded=0;shadow=0;labelBackgroundColor=none;fontFamily=Helvetica;fontSize=14;fontColor=#2F5B7C;" parent="1" vertex="1">
          <mxGeometry x="562.5" y="403.5" width="40" height="20" as="geometry" />
        </mxCell>
      </root>
    </mxGraphModel>
  </diagram>
</mxfile>
